<svg xmlns="http://www.w3.org/2000/svg" version="1.1" xmlns:xlink="http://www.w3.org/1999/xlink" xmlns:svgjs="http://svgjs.dev/svgjs" viewBox="0 0 800 800"><defs><linearGradient x1="50%" y1="0%" x2="50%" y2="100%" id="cccoil-grad"><stop stop-color="hsl(206, 75%, 49%)" stop-opacity="1" offset="0%"></stop><stop stop-color="hsl(331, 90%, 56%)" stop-opacity="1" offset="100%"></stop></linearGradient></defs><g stroke="url(#cccoil-grad)" fill="none" stroke-linecap="round"><circle r="336" cx="400" cy="400" stroke-width="7" stroke-dasharray="1858 2111" transform="rotate(360, 400, 400)" opacity="0.98"></circle><circle r="320" cx="400" cy="400" stroke-width="7" stroke-dasharray="1681 2011" transform="rotate(342, 400, 400)" opacity="0.94"></circle><circle r="304" cx="400" cy="400" stroke-width="7" stroke-dasharray="1513 1910" transform="rotate(324, 400, 400)" opacity="0.94"></circle><circle r="288" cx="400" cy="400" stroke-width="7" stroke-dasharray="1354 1810" transform="rotate(306, 400, 400)" opacity="0.77"></circle><circle r="272" cx="400" cy="400" stroke-width="7" stroke-dasharray="1203 1709" transform="rotate(288, 400, 400)" opacity="0.66"></circle><circle r="256" cx="400" cy="400" stroke-width="7" stroke-dasharray="1062 1608" transform="rotate(270, 400, 400)" opacity="0.59"></circle><circle r="240" cx="400" cy="400" stroke-width="7" stroke-dasharray="929 1508" transform="rotate(252, 400, 400)" opacity="0.35"></circle><circle r="224" cx="400" cy="400" stroke-width="7" stroke-dasharray="805 1407" transform="rotate(234, 400, 400)" opacity="0.27"></circle><circle r="208" cx="400" cy="400" stroke-width="7" stroke-dasharray="690 1307" transform="rotate(216, 400, 400)" opacity="0.81"></circle><circle r="192" cx="400" cy="400" stroke-width="7" stroke-dasharray="584 1206" transform="rotate(198, 400, 400)" opacity="0.23"></circle><circle r="176" cx="400" cy="400" stroke-width="7" stroke-dasharray="487 1106" transform="rotate(180, 400, 400)" opacity="0.61"></circle><circle r="160" cx="400" cy="400" stroke-width="7" stroke-dasharray="398 1005" transform="rotate(162, 400, 400)" opacity="0.38"></circle><circle r="144" cx="400" cy="400" stroke-width="7" stroke-dasharray="318 905" transform="rotate(144, 400, 400)" opacity="0.37"></circle><circle r="128" cx="400" cy="400" stroke-width="7" stroke-dasharray="248 804" transform="rotate(126, 400, 400)" opacity="0.71"></circle><circle r="112" cx="400" cy="400" stroke-width="7" stroke-dasharray="186 704" transform="rotate(108, 400, 400)" opacity="0.11"></circle><circle r="96" cx="400" cy="400" stroke-width="7" stroke-dasharray="133 603" transform="rotate(90, 400, 400)" opacity="0.60"></circle><circle r="80" cx="400" cy="400" stroke-width="7" stroke-dasharray="88 503" transform="rotate(72, 400, 400)" opacity="0.93"></circle><circle r="64" cx="400" cy="400" stroke-width="7" stroke-dasharray="53 402" transform="rotate(54, 400, 400)" opacity="0.93"></circle><circle r="48" cx="400" cy="400" stroke-width="7" stroke-dasharray="27 302" transform="rotate(36, 400, 400)" opacity="0.17"></circle><circle r="32" cx="400" cy="400" stroke-width="7" stroke-dasharray="9 201" transform="rotate(18, 400, 400)" opacity="0.87"></circle><circle r="16" cx="400" cy="400" stroke-width="7" stroke-dasharray="0 101" opacity="0.76"></circle></g></svg>